<svg xmlns="http://www.w3.org/2000/svg" width="50" height="50" viewBox="0 0 50 50">
    <defs>
        <clipPath id="g3jgefm8la">
            <path data-name="Rectangle 42" transform="translate(98 508)" style="fill:none;stroke:#707070" d="M0 0h50v50H0z"/>
        </clipPath>
    </defs>
    <g data-name="Mask Group 18" transform="translate(-98 -508)" style="clip-path:url(#g3jgefm8la)">
        <g data-name="Group 1231">
            <path data-name="Path 2099" d="m-1013.211-582.788 17.463-21.585-.121-.133c-.227.19-.463.37-.679.572q-10.128 9.461-20.238 18.942a1.517 1.517 0 0 1-1.8.378q-5.372-1.9-10.779-3.7a2.815 2.815 0 0 1-2.258-2.5 2.776 2.776 0 0 1 1.792-2.753q19.341-10.135 38.667-20.3a2.822 2.822 0 0 1 3.208.006 2.78 2.78 0 0 1 1.01 2.95q-2.257 14.7-4.465 29.4c-.141.932-.254 1.87-.437 2.793a2.507 2.507 0 0 1-3.261 2.091c-6.001-1.988-11.974-4.073-18.102-6.161z" transform="translate(1132.256 1126.2)" style="fill:#fff"/>
            <path data-name="Path 2100" d="M-940.523-442.482c-2.105 1.862-4.04 3.6-6 5.3a2.489 2.489 0 0 1-2.741.386 2.427 2.427 0 0 1-1.585-2.27c-.056-2.272-.017-4.546-.017-6.954z" transform="translate(1067.276 990.727)" style="fill:#fff"/>
        </g>
    </g>
</svg>
