<svg xmlns="http://www.w3.org/2000/svg" width="24" height="24" viewBox="0 0 24 24">
    <defs>
        <clipPath id="zeyjuwa48a">
            <path data-name="Rectangle 66" transform="translate(633 68)" style="fill:#fff;stroke:#707070" d="M0 0h24v24H0z"/>
        </clipPath>
    </defs>
    <g data-name="Mask Group 26" transform="translate(-633 -68)" style="clip-path:url(#zeyjuwa48a)">
        <g data-name="Group 1255">
            <path data-name="Path 2117" d="M3172.389 739.756c-.87 0-1.742.007-2.612 0a2.273 2.273 0 0 1-2.342-2.341q-.015-2.614 0-5.227a2.263 2.263 0 0 1 2.315-2.317q2.637-.017 5.273 0a2.257 2.257 0 0 1 2.293 2.291q.021 2.66 0 5.322a2.261 2.261 0 0 1-2.267 2.27c-.885.014-1.773.002-2.66.002zm.036-8.366h-2.562c-.625 0-.905.276-.907.892q-.007 2.515 0 5.03c0 .649.273.918.927.92q2.492.005 4.982 0c.654 0 .929-.271.931-.916q.006-2.515 0-5.03c0-.618-.28-.891-.9-.895-.826-.005-1.648 0-2.471 0z" transform="translate(-2533.338 -660.258)" style="fill:#797979"/>
            <path data-name="Path 2118" d="M3172.376 758.874h-2.565a2.277 2.277 0 0 1-2.377-2.354q-.012-2.59 0-5.179a2.274 2.274 0 0 1 2.377-2.353q2.565-.01 5.131 0a2.272 2.272 0 0 1 2.377 2.353q.013 2.589 0 5.178a2.275 2.275 0 0 1-2.376 2.355c-.856.004-1.712 0-2.567 0zm0-1.524c.854 0 1.709.007 2.563 0a.761.761 0 0 0 .855-.846q.012-2.562 0-5.124a.769.769 0 0 0-.881-.869q-2.539-.008-5.076 0a.771.771 0 0 0-.882.87q-.009 2.538 0 5.077c0 .617.281.889.905.894.84.002 1.678-.002 2.515-.002z" transform="translate(-2533.339 -667.966)" style="fill:#797979"/>
            <path data-name="Path 2119" d="M3186.549 753.929v-2.566a2.276 2.276 0 0 1 2.354-2.377q2.588-.012 5.179 0a2.271 2.271 0 0 1 2.354 2.376q.012 2.566 0 5.131a2.276 2.276 0 0 1-2.4 2.378q-2.543.009-5.084 0a2.285 2.285 0 0 1-2.4-2.424c-.006-.84-.003-1.679-.003-2.518zm1.522-.05v2.562c0 .625.275.905.892.907q2.517.007 5.03 0c.647 0 .918-.273.919-.927v-4.982c0-.655-.271-.929-.915-.931q-2.515-.005-5.03 0c-.617 0-.891.281-.9.9 0 .826.004 1.648.004 2.471z" transform="translate(-2541.047 -667.965)" style="fill:#797979"/>
            <path data-name="Path 2120" d="M3191.122 739.908a2.2 2.2 0 0 1-1.615-.682c-1.045-1.037-2.092-2.071-3.12-3.124a2.252 2.252 0 0 1 0-3.274q1.542-1.579 3.121-3.121a2.252 2.252 0 0 1 3.274 0q1.579 1.541 3.121 3.121a2.253 2.253 0 0 1 0 3.276c-1.026 1.054-2.073 2.088-3.12 3.123a2.174 2.174 0 0 1-1.661.681zm.05-9.429a2.247 2.247 0 0 0-.561.288q-1.594 1.562-3.157 3.151a.733.733 0 0 0 .006 1.1q1.548 1.572 3.119 3.122a.746.746 0 0 0 1.136-.007q1.554-1.533 3.087-3.087a.752.752 0 0 0-.007-1.17q-1.518-1.536-3.057-3.051a3.04 3.04 0 0 0-.566-.346z" transform="translate(-2540.697 -659.91)" style="fill:#797979"/>
        </g>
    </g>
</svg>
