<svg xmlns="http://www.w3.org/2000/svg" width="50" height="50" viewBox="0 0 50 50">
    <defs>
        <clipPath id="e33kd5u1aa">
            <path data-name="Rectangle 48" transform="translate(98 508)" style="fill:none;stroke:#707070" d="M0 0h50v50H0z"/>
        </clipPath>
    </defs>
    <g data-name="Mask Group 19" transform="translate(-98 -508)" style="clip-path:url(#e33kd5u1aa)">
        <g data-name="Group 1236">
            <path data-name="Path 2103" d="M-476.973-511.566h-2.442c-3.431 0-6.862.011-10.292 0-2.9-.012-4.414-1.509-4.417-4.409q-.019-16.293 0-32.586c0-2.92 1.573-4.433 4.508-4.434h16.272c0 2.281-.034 4.467.018 6.651a6.368 6.368 0 0 0 .407 2.314 4.48 4.48 0 0 0 4.373 2.8c2.089.032 4.18.007 6.333.007v8.843c-1.458.173-2.909.264-4.327.532a14.708 14.708 0 0 0-6.057 2.861 2.632 2.632 0 0 1-1.453.5c-4.129.039-8.259.021-12.388.024a2.142 2.142 0 0 0-.937.064 1.306 1.306 0 0 0-.665.774c-.036.239.269.624.523.785a1.841 1.841 0 0 0 .922.122q5.242.01 10.483 0h1.083c-.669 1.23-1.267 2.4-1.949 3.525-.126.208-.583.3-.889.3-2.891.022-5.781.013-8.672.014-.254 0-.582-.087-.746.038-.315.238-.7.58-.739.918-.028.221.453.6.779.744a2.738 2.738 0 0 0 1.036.041h8.508a15.905 15.905 0 0 0 .728 9.572zm-4.693-22.4c-1.747 0-3.495.006-5.242 0-.6 0-1.143.142-1.157.83-.015.734.53.917 1.179.916q5.242-.01 10.483 0c.614 0 1.135-.179 1.157-.844.025-.742-.532-.907-1.179-.9-1.747.008-3.494 0-5.241 0z" transform="translate(595.132 1061.604)" style="fill:#fff"/>
            <path data-name="Path 2104" d="M-424.229-484.439a13.133 13.133 0 0 1-13.222 13.05 13.142 13.142 0 0 1-13.012-13.262 13.158 13.158 0 0 1 13.176-13.015 13.157 13.157 0 0 1 13.058 13.227zm-13.985 4.813-.3.221a6.3 6.3 0 0 0-.525-.768c-1.267-1.38-2.548-2.745-3.824-4.117-.442-.476-.938-.875-1.535-.3-.557.539-.2 1.028.221 1.478 1.97 2.113 3.93 4.236 5.905 6.343.687.733 1.1.722 1.816-.035 1.977-2.106 3.941-4.225 5.913-6.335.426-.457.741-.957.175-1.479s-1.043-.155-1.462.3q-2.006 2.166-4.017 4.327a8.337 8.337 0 0 1-.634.544v-11.675c0-.285.088-.631-.04-.842-.188-.309-.532-.715-.815-.719s-.64.391-.834.694c-.132.206-.045.555-.046.841l.003 11.522z" transform="translate(569.231 1028.785)" style="fill:#fff"/>
            <path data-name="Path 2105" d="m-438.662-549.631 8.1 8.513c-2.111 0-4.1.105-6.062-.041a2.483 2.483 0 0 1-2.02-2.462c-.056-1.901-.018-3.806-.018-6.01z" transform="translate(562.239 1059.606)" style="fill:#fff"/>
        </g>
    </g>
</svg>
